<?xml version="1.0" standalone="no"?>
<!DOCTYPE svg PUBLIC "-//W3C//DTD SVG 20010904//EN"
 "http://www.w3.org/TR/2001/REC-SVG-20010904/DTD/svg10.dtd">
<svg version="1.0" xmlns="http://www.w3.org/2000/svg"
 width="1773.000000pt" height="1159.000000pt" viewBox="0 0 1773.000000 1159.000000"
 preserveAspectRatio="xMidYMid meet">

<g transform="translate(0.000000,1159.000000) scale(0.100000,-0.100000)"
fill="#001489" stroke="none">
<path d="M10 11035 l0 -545 1471 -2 1470 -3 -1470 -1840 -1471 -1840 0 -437 0
-438 2660 0 2660 0 0 550 0 550 -1796 2 -1796 3 1312 1640 c721 902 1313 1641
1315 1643 2 2 280 -482 619 -1075 l616 -1079 0 -1117 0 -1117 630 0 630 0 0
1116 0 1116 957 1676 c526 923 965 1692 976 1710 l19 32 -684 0 -683 0 -605
-1045 c-333 -575 -607 -1045 -610 -1045 -3 0 -277 471 -610 1045 l-604 1045
-2503 0 -2503 0 0 -545z"/>
<path d="M9419 11158 c-139 -233 -286 -478 -325 -545 l-73 -123 3724 0 3725 0
-2 -4677 -3 -4678 -1067 -3 -1067 -2 -322 -538 c-177 -295 -329 -547 -337
-560 l-14 -22 2031 0 2031 0 0 5785 0 5785 -4024 0 -4025 0 -252 -422z"/>
<path d="M10 2835 l0 -2825 1443 0 1443 0 241 560 241 560 -1056 2 -1057 3 -3
2263 -2 2262 -625 0 -625 0 0 -2825z"/>
<path d="M5591 5633 c-16 -34 -2410 -5590 -2418 -5609 -4 -12 99 -14 665 -14
l670 0 39 93 c22 50 140 325 263 610 l223 517 1180 -2 1180 -3 260 -608 261
-608 1975 4 c1793 3 1987 5 2100 20 685 94 1070 321 1339 790 131 229 192 471
192 760 0 395 -121 700 -379 958 -192 192 -413 313 -711 390 l-45 11 120 58
c186 89 375 239 483 385 92 125 167 310 196 485 76 465 -30 879 -318 1236
-222 277 -626 454 -1206 531 -109 14 -287 17 -1382 20 l-1258 4 -2 -2542 -3
-2542 -1076 2539 -1076 2539 -630 3 -630 2 -12 -27z m5594 -1053 c307 -26 491
-86 589 -190 94 -101 129 -212 130 -415 1 -120 -2 -151 -23 -215 -57 -184
-157 -270 -379 -326 -190 -48 -287 -56 -769 -61 l-453 -5 0 611 0 611 393 0
c215 0 446 -5 512 -10z m-4620 -1424 c190 -445 344 -811 342 -813 -2 -2 -317
-2 -700 -1 l-696 3 351 812 c193 447 353 812 354 810 2 -1 158 -366 349 -811z
m4685 -786 c513 -26 768 -107 881 -283 61 -94 81 -170 86 -322 17 -476 -224
-652 -937 -686 -118 -5 -390 -9 -605 -7 l-390 3 -3 640 c-1 352 0 646 3 653 6
15 668 17 965 2z"/>
</g>
</svg>
