<svg xmlns="http://www.w3.org/2000/svg" viewBox="0 0 88 57.49"><defs><style>.cls-1{fill:#001489;}</style></defs><title>logo-svg</title><g id="Laag_2" data-name="Laag 2"><g id="Layer_1" data-name="Layer 1"><g id="Vector_Smart_Object" data-name="Vector Smart Object"><polygon class="cls-1" points="0 29.43 0 57.49 14.34 57.49 16.74 51.91 6.25 51.91 6.25 29.43 0 29.43"/><polygon class="cls-1" points="48.02 0 44.78 5.42 81.75 5.42 81.75 51.91 71.16 51.91 67.82 57.49 88 57.49 88 0 48.02 0"/><path class="cls-1" d="M61.44,42.92l1-.46a7.69,7.69,0,0,0,1-.71,5.75,5.75,0,0,0,2.12-4.89A7.29,7.29,0,0,0,63.69,32a7.08,7.08,0,0,0-3.11-1.85,15.8,15.8,0,0,0-4.9-.68H44.78V54.77L34,29.43H27.79L15.7,57.49h6.64L25,51.43H36.68l2.61,6.06H57q5.76,0,8.09-2.61a7.57,7.57,0,0,0,2-5.18,6.53,6.53,0,0,0-1.54-4.43,7.32,7.32,0,0,0-4.15-2.35m-34.13,3,3.53-8.15,3.48,8.15ZM51,34.73h3a9.24,9.24,0,0,1,3.93.6,2.51,2.51,0,0,1,1.16,2.47,2.38,2.38,0,0,1-1.26,2.43,10.13,10.13,0,0,1-3.87.56H51Zm8.31,16.8a9.47,9.47,0,0,1-4,.66H51V45.73h3.68a12.27,12.27,0,0,1,4.55.62,2.51,2.51,0,0,1,1.42,2.57,2.63,2.63,0,0,1-1.34,2.61"/><polygon class="cls-1" points="26.46 28.07 26.46 22.61 26.37 22.61 8.57 22.61 21.66 6.25 27.79 16.98 27.79 28.07 34.04 28.07 34.04 16.98 43.73 0 36.96 0 30.91 10.44 24.86 0 0.04 0 0.04 5.42 14.66 5.42 0 23.77 0 28.07 26.37 28.07 26.46 28.07"/></g></g></g></svg>